<svg width="13" height="13" viewBox="0 0 13 13" fill="none" xmlns="http://www.w3.org/2000/svg">
<path fill-rule="evenodd" clip-rule="evenodd" d="M3.91014 1.52343H1.77734C1.63711 1.52343 1.52343 1.63711 1.52343 1.77734V3.91014C1.52343 4.05037 1.63711 4.16405 1.77734 4.16405H3.91014C4.05037 4.16405 4.16405 4.05037 4.16405 3.91014V1.77734C4.16405 1.63711 4.05037 1.52343 3.91014 1.52343ZM1.77734 0C0.795741 0 0 0.795739 0 1.77734V3.91014C0 4.89174 0.795739 5.68748 1.77734 5.68748H3.91014C4.89174 5.68748 5.68748 4.89174 5.68748 3.91014V1.77734C5.68748 0.795741 4.89174 0 3.91014 0H1.77734ZM9.08981 1.52343H11.2226C11.3628 1.52343 11.4765 1.63711 11.4765 1.77734V3.91014C11.4765 4.05037 11.3628 4.16405 11.2226 4.16405H9.08981C8.94958 4.16405 8.8359 4.05037 8.8359 3.91014V1.77734C8.8359 1.63711 8.94958 1.52343 9.08981 1.52343ZM7.31247 1.77734C7.31247 0.795739 8.10821 0 9.08981 0H11.2226C12.2042 0 12.9999 0.795741 12.9999 1.77734V3.91014C12.9999 4.89174 12.2042 5.68748 11.2226 5.68748H9.08981C8.10821 5.68748 7.31247 4.89174 7.31247 3.91014V1.77734ZM2.86496 2.05227C2.41623 2.05227 2.05247 2.41604 2.05247 2.86477C2.05247 3.3135 2.41623 3.67726 2.86496 3.67726C3.31369 3.67726 3.67746 3.3135 3.67746 2.86477C3.67746 2.41604 3.31369 2.05227 2.86496 2.05227ZM7.31247 8.12497C7.31247 7.67624 7.67624 7.31247 8.12497 7.31247C8.5737 7.31247 8.93747 7.67624 8.93747 8.12497C8.93747 8.5737 8.5737 8.93747 8.12497 8.93747C7.67624 8.93747 7.31247 8.5737 7.31247 8.12497ZM11.375 8.12497C11.375 7.67624 11.7387 7.31247 12.1875 7.31247C12.6362 7.31247 13 7.67624 13 8.12497C13 8.5737 12.6362 8.93747 12.1875 8.93747C11.7387 8.93747 11.375 8.5737 11.375 8.12497ZM12.1875 11.375C11.7387 11.375 11.375 11.7387 11.375 12.1875C11.375 12.6362 11.7387 13 12.1875 13C12.6362 13 13 12.6362 13 12.1875C13 11.7387 12.6362 11.375 12.1875 11.375ZM7.31247 12.1875C7.31247 11.7387 7.67624 11.375 8.12497 11.375C8.5737 11.375 8.93747 11.7387 8.93747 12.1875C8.93747 12.6362 8.5737 13 8.12497 13C7.67624 13 7.31247 12.6362 7.31247 12.1875ZM10.1774 9.36474C9.72871 9.36474 9.36494 9.72851 9.36494 10.1772C9.36494 10.626 9.72871 10.9897 10.1774 10.9897C10.6262 10.9897 10.9899 10.626 10.9899 10.1772C10.9899 9.72851 10.6262 9.36474 10.1774 9.36474ZM2.05247 10.1772C2.05247 9.72851 2.41623 9.36474 2.86496 9.36474C3.31369 9.36474 3.67746 9.72851 3.67746 10.1772C3.67746 10.626 3.31369 10.9897 2.86496 10.9897C2.41623 10.9897 2.05247 10.626 2.05247 10.1772ZM9.36494 2.86477C9.36494 2.41604 9.72871 2.05227 10.1774 2.05227C10.6262 2.05227 10.9899 2.41604 10.9899 2.86477C10.9899 3.3135 10.6262 3.67726 10.1774 3.67726C9.72871 3.67726 9.36494 3.3135 9.36494 2.86477ZM1.77734 8.8359H3.91014C4.05037 8.8359 4.16405 8.94958 4.16405 9.08981V11.2226C4.16405 11.3628 4.05037 11.4765 3.91014 11.4765H1.77734C1.63711 11.4765 1.52343 11.3628 1.52343 11.2226V9.08981C1.52343 8.94958 1.63711 8.8359 1.77734 8.8359ZM0 9.08981C0 8.10821 0.795741 7.31247 1.77734 7.31247H3.91014C4.89174 7.31247 5.68748 8.10821 5.68748 9.08981V11.2226C5.68748 12.2042 4.89174 12.9999 3.91014 12.9999H1.77734C0.795739 12.9999 0 12.2042 0 11.2226V9.08981Z" fill="#2D5FAA"/>
</svg>
