<svg width="168" height="40" viewBox="0 0 168 40" fill="none" xmlns="http://www.w3.org/2000/svg">
<g clip-path="url(#clip0_3410_117947)">
<path d="M16.2371 5.30286C17.7105 5.30286 18.9049 4.11577 18.9049 2.65143C18.9049 1.18709 17.7105 0 16.2371 0C14.7637 0 13.5693 1.18709 13.5693 2.65143C13.5693 4.11577 14.7637 5.30286 16.2371 5.30286Z" fill="#FF8200"/>
<path d="M3.54172 18.3314C5.49776 18.3314 7.08344 16.7555 7.08344 14.8114C7.08344 12.8674 5.49776 11.2914 3.54172 11.2914C1.58568 11.2914 0 12.8674 0 14.8114C0 16.7555 1.58568 18.3314 3.54172 18.3314Z" fill="#2D5FAA"/>
<path d="M13.5232 28.9829C15.4792 28.9829 17.0649 27.4069 17.0649 25.4629C17.0649 23.5188 15.4792 21.9429 13.5232 21.9429C11.5671 21.9429 9.98145 23.5188 9.98145 25.4629C9.98145 27.4069 11.5671 28.9829 13.5232 28.9829Z" fill="#2D5FAA"/>
<path d="M23.8725 4.93714C25.2442 4.93714 26.3563 3.83193 26.3563 2.46857C26.3563 1.10522 25.2442 0 23.8725 0C22.5007 0 21.3887 1.10522 21.3887 2.46857C21.3887 3.83193 22.5007 4.93714 23.8725 4.93714Z" fill="#FF8200"/>
<path d="M31.7836 4.93714C33.1554 4.93714 34.2674 3.83193 34.2674 2.46857C34.2674 1.10522 33.1554 0 31.7836 0C30.4118 0 29.2998 1.10522 29.2998 2.46857C29.2998 3.83193 30.4118 4.93714 31.7836 4.93714Z" fill="#FF8200"/>
<path d="M23.8725 23.0857C25.2442 23.0857 26.3563 21.9805 26.3563 20.6171C26.3563 19.2538 25.2442 18.1486 23.8725 18.1486C22.5007 18.1486 21.3887 19.2538 21.3887 20.6171C21.3887 21.9805 22.5007 23.0857 23.8725 23.0857Z" fill="#FF8200"/>
<path d="M13.5692 39.9543C15.5506 39.9543 17.1569 38.3579 17.1569 36.3886C17.1569 34.4193 15.5506 32.8229 13.5692 32.8229C11.5877 32.8229 9.98145 34.4193 9.98145 36.3886C9.98145 38.3579 11.5877 39.9543 13.5692 39.9543Z" fill="#2D5FAA"/>
<path d="M26.2175 10.4229C25.7115 9.23428 24.4236 8.59428 23.1817 8.96C22.3078 9.23428 21.6638 9.92 21.4798 10.7886C21.3879 11.1086 21.2039 11.3829 20.9739 11.6114C19.548 12.6171 17.7541 12.8 16.1443 12.16C15.8683 12.0686 15.5463 11.9314 15.2703 11.7486C15.1324 11.6571 14.9484 11.6114 14.8104 11.52H14.7184C13.9364 11.2 13.0625 11.2 12.2346 11.52C10.3947 12.2514 9.52079 14.2629 10.2107 16.0914C10.9007 17.8286 12.8325 18.7429 14.6264 18.1486C15.3623 17.92 16.0063 17.4171 16.4202 16.7771C16.5122 16.64 16.6042 16.4571 16.6962 16.32C16.6962 16.32 18.9501 12.5714 21.8018 13.0286C22.0318 13.12 22.2618 13.2114 22.4918 13.3486C23.1357 13.8057 23.9177 13.8971 24.6536 13.6686C25.9415 13.2571 26.6774 11.84 26.2635 10.56C26.2175 10.5143 26.2175 10.4686 26.2175 10.4229Z" fill="url(#paint0_linear_3410_117947)"/>
<path d="M32.6113 13.9829H46.6402V17.5486H41.4886V32.9543H37.7169V17.5486H32.6113V13.9829Z" fill="#2D5FAA"/>
<path d="M51.4703 19.3771V21.7085C51.7463 20.8856 52.2983 20.1999 53.0342 19.7885C53.8161 19.3314 54.6901 19.1028 55.61 19.1028V22.9885C54.5981 22.8514 53.5402 23.0799 52.7122 23.6285C51.8843 24.1771 51.4703 25.1371 51.4703 26.4171V32.9085H47.9746V19.3771H51.4703Z" fill="#2D5FAA"/>
<path d="M105.884 13.9829H119.913V17.5486H114.761V32.9543H110.989V17.5486H105.884V13.9829Z" fill="#FF8200"/>
<path d="M124.742 19.3771V21.7085C125.018 20.8856 125.57 20.1999 126.306 19.7885C127.088 19.3314 127.962 19.1028 128.882 19.1028V22.9885C127.87 22.8514 126.858 23.0799 125.984 23.6285C125.156 24.1771 124.742 25.1371 124.742 26.4171V32.9085H121.246V19.3771H124.742Z" fill="#FF8200"/>
<path d="M149.764 22.8515C149.764 23.4458 150.592 23.903 152.248 24.3601C152.8 24.4972 153.306 24.6344 153.811 24.8172C154.317 25.0001 154.777 25.2287 155.237 25.5487C155.697 25.8687 156.111 26.2801 156.387 26.8287C156.663 27.3772 156.801 28.0172 156.801 28.6572C156.847 29.9372 156.249 31.1258 155.237 31.903C154.087 32.6801 152.708 33.0458 151.328 33.0001C148.522 33.0001 146.636 31.903 145.578 29.7544L148.614 28.063C149.028 29.2515 149.948 29.8458 151.282 29.8458C152.524 29.8458 153.168 29.4801 153.168 28.6572C153.168 28.063 152.34 27.6058 150.684 27.1487C150.04 26.9658 149.534 26.8287 149.12 26.6458C148.614 26.463 148.154 26.2344 147.694 25.9144C147.188 25.6401 146.82 25.183 146.544 24.6801C146.268 24.1315 146.13 23.5372 146.13 22.943C146.084 21.7087 146.636 20.5658 147.602 19.7887C148.66 19.0115 149.994 18.6001 151.328 18.6001C152.386 18.6001 153.444 18.8287 154.363 19.3315C155.283 19.8344 156.019 20.5658 156.525 21.4801L153.536 23.1258C153.168 22.2572 152.294 21.7087 151.328 21.7544C150.914 21.7544 150.546 21.8458 150.178 22.0744C149.948 22.2572 149.81 22.5315 149.764 22.8515Z" fill="#FF8200"/>
<path d="M167.059 19.24V22.6229H163.977V28.2915C163.931 28.6572 164.069 29.0686 164.345 29.3429C164.621 29.5715 164.989 29.7086 165.403 29.7086C165.955 29.7543 166.553 29.7543 167.105 29.7086V32.9086C164.713 33.1829 163.011 32.9543 162 32.2229C160.988 31.4915 160.482 30.2115 160.482 28.3372V22.6229H158.09V19.2857H160.482V16.5429L164.023 15.4915V19.2857H167.059V19.24Z" fill="#FF8200"/>
<path d="M134.908 19.4229V26.6914C134.908 28.4286 135.736 29.48 137.621 29.48C139.507 29.48 140.335 28.4286 140.335 26.6914V19.4229H143.831V26.7371C143.831 27.6971 143.693 28.6571 143.371 29.5714C143.049 30.3486 142.543 30.9886 141.945 31.4914C139.369 33.3657 135.874 33.3657 133.298 31.4914C132.654 30.9886 132.148 30.3029 131.826 29.5714C131.504 28.6571 131.366 27.6971 131.412 26.7371V19.4229H134.908Z" fill="#FF8200"/>
<path d="M68.0285 20.6115V19.0115H71.5242V32.543H68.0285V30.943C66.9706 32.2687 65.3147 33.0001 63.5668 32.9087C61.773 32.9087 60.0711 32.1772 58.8752 30.8515C56.2994 27.9258 56.2994 23.583 58.8752 20.703C60.0711 19.3772 61.773 18.6001 63.5668 18.6001C65.4987 18.6458 66.9706 19.2858 68.0285 20.6115ZM60.4851 25.823C60.4851 27.7887 62.095 29.3887 64.0728 29.3887C66.0506 29.3887 67.6605 27.7887 67.6605 25.823C67.6605 23.8572 66.0506 22.2572 64.0728 22.2572C62.095 22.2572 60.4851 23.8115 60.4851 25.823Z" fill="#2D5FAA"/>
<path d="M85.0929 20.6115V13.5715H88.5887V32.543H85.0929V30.943C84.035 32.2687 82.5631 32.9087 80.6773 32.9087C78.8834 32.9087 77.1816 32.1773 75.9397 30.8515C73.3639 27.9258 73.3639 23.583 75.9397 20.703C77.1356 19.3772 78.8374 18.6001 80.6313 18.6001C82.5631 18.6458 84.035 19.2858 85.0929 20.6115ZM77.5035 25.823C77.5035 27.7887 79.1134 29.3887 81.0912 29.3887C83.0691 29.3887 84.679 27.7887 84.679 25.823C84.679 23.8573 83.0691 22.2572 81.0912 22.2572C79.1594 22.2572 77.5495 23.8115 77.5035 25.823Z" fill="#2D5FAA"/>
<path d="M104.458 27.1943H94.1549C94.6149 28.8858 95.9028 29.7543 98.0186 29.7543C99.2145 29.8457 100.364 29.2972 101.1 28.3829L103.952 30.0286C102.618 31.9943 100.594 32.9543 97.9726 32.9543C95.7188 32.9543 93.8789 32.2686 92.545 30.8972C89.8312 28.0172 89.8312 23.5372 92.499 20.6572C93.8789 19.2857 95.7648 18.5086 97.7426 18.6C99.6285 18.5543 101.422 19.2857 102.71 20.6572C103.998 22.0286 104.734 23.8572 104.642 25.7772C104.55 26.2343 104.504 26.7372 104.458 27.1943ZM94.0629 24.4515H101.054C100.778 22.8057 99.3065 21.6629 97.6506 21.7086C96.8227 21.6629 95.9948 21.9372 95.3048 22.44C94.6609 22.9429 94.2469 23.6743 94.0629 24.4515Z" fill="#2D5FAA"/>
</g>
<defs>
<linearGradient id="paint0_linear_3410_117947" x1="13.8896" y1="17.1008" x2="25.0138" y2="5.90331" gradientUnits="userSpaceOnUse">
<stop stop-color="#2D5FAA"/>
<stop offset="0.1" stop-color="#3061A0"/>
<stop offset="0.27" stop-color="#4A658A"/>
<stop offset="0.49" stop-color="#756B66"/>
<stop offset="0.75" stop-color="#AF7436"/>
<stop offset="1" stop-color="#FF8200"/>
</linearGradient>
<clipPath id="clip0_3410_117947">
<rect width="167.059" height="40" fill="white"/>
</clipPath>
</defs>
</svg>
