<svg width="15" height="15" viewBox="0 0 15 15" fill="none" xmlns="http://www.w3.org/2000/svg">
<path d="M14.5745 8.98393H3.81331C4.29372 10.7506 5.63887 11.6577 7.84877 11.6577C9.09784 11.7532 10.2989 11.1803 11.0675 10.2253L14.0461 11.9442C12.6529 13.9973 10.5391 15 7.80072 15C5.44671 15 3.52506 14.2838 2.13186 12.8514C-0.702566 9.84337 -0.702561 5.16421 2.08383 2.15618C3.52506 0.72378 5.49475 -0.0879119 7.56052 0.00758123C9.53021 -0.0401653 11.4038 0.72378 12.749 2.15618C14.0941 3.58857 14.8628 5.49843 14.7667 7.50379C14.6706 7.98125 14.6226 8.50647 14.5745 8.98393ZM3.71722 6.11914H11.0195C10.7312 4.40027 9.19392 3.2066 7.46444 3.25435C6.5997 3.2066 5.73495 3.49308 5.01433 4.01829C4.34176 4.5435 3.90939 5.30745 3.71722 6.11914Z" fill="#2D5FAA"/>
</svg>
