<svg width="13" height="13" viewBox="0 0 13 13" fill="none" xmlns="http://www.w3.org/2000/svg">
<path fill-rule="evenodd" clip-rule="evenodd" d="M3.91016 1.52344H1.77735C1.63711 1.52344 1.52344 1.63712 1.52344 1.77734V3.91016C1.52344 4.05039 1.63712 4.16407 1.77734 4.16407H3.91016C4.05039 4.16407 4.16407 4.05039 4.16407 3.91016V1.77735C4.16407 1.63711 4.05039 1.52344 3.91016 1.52344ZM1.77735 0C0.795745 0 0 0.795743 0 1.77734V3.91016C0 4.89176 0.795743 5.68751 1.77734 5.68751H3.91016C4.89176 5.68751 5.68751 4.89176 5.68751 3.91016V1.77735C5.68751 0.795745 4.89176 0 3.91016 0H1.77735ZM9.08985 1.52344H11.2227C11.3629 1.52344 11.4766 1.63711 11.4766 1.77735V3.91016C11.4766 4.05039 11.3629 4.16407 11.2227 4.16407H9.08985C8.94962 4.16407 8.83595 4.05039 8.83595 3.91016V1.77734C8.83595 1.63712 8.94962 1.52344 9.08985 1.52344ZM7.31251 1.77734C7.31251 0.795743 8.10825 0 9.08985 0H11.2227C12.2043 0 13 0.795745 13 1.77735V3.91016C13 4.89176 12.2043 5.68751 11.2227 5.68751H9.08985C8.10825 5.68751 7.31251 4.89176 7.31251 3.91016V1.77734ZM2.86498 2.05228C2.41625 2.05228 2.05248 2.41605 2.05248 2.86478C2.05248 3.31351 2.41625 3.67728 2.86498 3.67728C3.31371 3.67728 3.67748 3.31351 3.67748 2.86478C3.67748 2.41605 3.31371 2.05228 2.86498 2.05228ZM7.31251 8.12501C7.31251 7.67628 7.67628 7.31251 8.12501 7.31251C8.57374 7.31251 8.93751 7.67628 8.93751 8.12501C8.93751 8.57374 8.57374 8.93751 8.12501 8.93751C7.67628 8.93751 7.31251 8.57374 7.31251 8.12501ZM11.375 8.12501C11.375 7.67628 11.7388 7.31251 12.1875 7.31251C12.6362 7.31251 13 7.67628 13 8.12501C13 8.57374 12.6362 8.93751 12.1875 8.93751C11.7388 8.93751 11.375 8.57374 11.375 8.12501ZM12.1875 11.375C11.7388 11.375 11.375 11.7388 11.375 12.1875C11.375 12.6362 11.7388 13 12.1875 13C12.6362 13 13 12.6362 13 12.1875C13 11.7388 12.6362 11.375 12.1875 11.375ZM7.31251 12.1875C7.31251 11.7388 7.67628 11.375 8.12501 11.375C8.57374 11.375 8.93751 11.7388 8.93751 12.1875C8.93751 12.6362 8.57374 13 8.12501 13C7.67628 13 7.31251 12.6362 7.31251 12.1875ZM10.1775 9.36479C9.72875 9.36479 9.36498 9.72855 9.36498 10.1773C9.36498 10.626 9.72875 10.9898 10.1775 10.9898C10.6262 10.9898 10.99 10.626 10.99 10.1773C10.99 9.72855 10.6262 9.36479 10.1775 9.36479ZM2.05248 10.1773C2.05248 9.72855 2.41625 9.36479 2.86498 9.36479C3.31371 9.36479 3.67748 9.72855 3.67748 10.1773C3.67748 10.626 3.31371 10.9898 2.86498 10.9898C2.41625 10.9898 2.05248 10.626 2.05248 10.1773ZM9.36498 2.86478C9.36498 2.41605 9.72875 2.05228 10.1775 2.05228C10.6262 2.05228 10.99 2.41605 10.99 2.86478C10.99 3.31351 10.6262 3.67728 10.1775 3.67728C9.72875 3.67728 9.36498 3.31351 9.36498 2.86478ZM1.77735 8.83595H3.91016C4.05039 8.83595 4.16407 8.94962 4.16407 9.08985V11.2227C4.16407 11.3629 4.05039 11.4766 3.91016 11.4766H1.77734C1.63712 11.4766 1.52344 11.3629 1.52344 11.2227V9.08985C1.52344 8.94962 1.63711 8.83595 1.77735 8.83595ZM0 9.08985C0 8.10825 0.795745 7.31251 1.77735 7.31251H3.91016C4.89176 7.31251 5.68751 8.10825 5.68751 9.08985V11.2227C5.68751 12.2043 4.89176 13 3.91016 13H1.77734C0.795743 13 0 12.2043 0 11.2227V9.08985Z" fill="#2D5FAA"/>
</svg>
