<svg width="18" height="15" viewBox="0 0 18 15" fill="none" xmlns="http://www.w3.org/2000/svg">
<path fill-rule="evenodd" clip-rule="evenodd" d="M0.75 0C0.335786 0 0 0.335786 0 0.75C0 1.16421 0.335786 1.5 0.75 1.5H17.0886C17.5029 1.5 17.8386 1.16421 17.8386 0.75C17.8386 0.335786 17.5029 0 17.0886 0H0.75ZM0.75 4.5C0.335786 4.5 0 4.83579 0 5.25C0 5.66421 0.335786 6 0.75 6H17.0886C17.5029 6 17.8386 5.66421 17.8386 5.25C17.8386 4.83579 17.5029 4.5 17.0886 4.5H0.75ZM0 9.75C0 9.33579 0.335786 9 0.75 9H17.0886C17.5029 9 17.8386 9.33579 17.8386 9.75C17.8386 10.1642 17.5029 10.5 17.0886 10.5H0.75C0.335786 10.5 0 10.1642 0 9.75ZM0.75 13.5C0.335786 13.5 0 13.8358 0 14.25C0 14.6642 0.335786 15 0.75 15H17.0886C17.5029 15 17.8386 14.6642 17.8386 14.25C17.8386 13.8358 17.5029 13.5 17.0886 13.5H0.75Z" fill="#60636B"/>
</svg>
