<svg width="12" height="15" viewBox="0 0 12 15" fill="none" xmlns="http://www.w3.org/2000/svg">
<path d="M4.35893 4.4274C4.35893 5.04629 5.22114 5.52235 6.94555 5.99841C7.52035 6.14123 8.04725 6.28405 8.57416 6.47448C9.10106 6.6649 9.58007 6.90293 10.0591 7.23618C10.5381 7.56942 10.9692 7.99788 11.2566 8.56916C11.544 9.14044 11.6877 9.80693 11.6877 10.4734C11.7356 11.8064 11.1129 13.0442 10.0591 13.8535C8.86156 14.6628 7.42455 15.0436 5.98754 14.996C3.06562 14.996 1.10171 13.8535 0 11.616L3.16142 9.85453C3.59253 11.0923 4.55053 11.7112 5.93964 11.7112C7.23295 11.7112 7.90355 11.3303 7.90355 10.4734C7.90355 9.85454 7.04135 9.37847 5.31694 8.90241C4.64634 8.71198 4.11943 8.56916 3.68833 8.37874C3.16143 8.18831 2.68242 7.95028 2.20342 7.61703C1.67651 7.33139 1.29331 6.85533 1.00591 6.33166C0.718508 5.76038 0.57481 5.1415 0.57481 4.52261C0.526909 3.23724 1.1017 2.04708 2.10761 1.23777C3.20932 0.428457 4.59843 0 5.98754 0C7.08925 0 8.19096 0.238032 9.14897 0.761703C10.107 1.28537 10.8734 2.04708 11.4003 2.99921L8.28675 4.71304C7.90355 3.80852 6.99345 3.23724 5.98754 3.28485C5.55644 3.28485 5.17324 3.38006 4.79003 3.61809C4.55053 3.80852 4.40683 4.09416 4.35893 4.4274Z" fill="#FF8200"/>
</svg>
