<svg width="15" height="15" viewBox="0 0 15 15" fill="none" xmlns="http://www.w3.org/2000/svg">
<path d="M11.4036 2.06922V0.423251H14.9998V14.3435H11.4036V12.6975C10.3153 14.0613 8.61187 14.8137 6.81378 14.7197C4.96838 14.7197 3.21762 13.9672 1.98735 12.6034C-0.662451 9.59367 -0.662451 5.12603 1.98735 2.16328C3.21762 0.799471 4.96838 0 6.81378 0C8.80114 0.0470278 10.3153 0.705417 11.4036 2.06922ZM3.64348 7.43039C3.64348 9.45258 5.29961 11.0986 7.33428 11.0986C9.36896 11.0986 11.0251 9.45258 11.0251 7.43039C11.0251 5.40819 9.36896 3.76222 7.33428 3.76222C5.29961 3.76222 3.64348 5.36117 3.64348 7.43039Z" fill="#2D5FAA"/>
</svg>
