<svg width="9" height="9" viewBox="0 0 9 9" fill="none" xmlns="http://www.w3.org/2000/svg">
<path fill-rule="evenodd" clip-rule="evenodd" d="M8.99976 0.778365C9.0058 0.570206 8.92577 0.368762 8.77852 0.221509C8.63126 0.0742567 8.42982 -0.00577909 8.22166 0.000264863L4.17949 0.117631C3.76188 0.129756 3.43318 0.478123 3.4453 0.895731C3.45743 1.31334 3.80579 1.64205 4.2234 1.62992L7.35735 1.53893C7.41533 1.53724 7.46278 1.58469 7.4611 1.64267L7.3701 4.77662C7.35798 5.19423 7.68669 5.5426 8.10429 5.55472C8.5219 5.56685 8.87027 5.23814 8.88239 4.82053L8.99976 0.778365ZM1.62997 4.22336C1.64209 3.80575 1.31338 3.45738 0.895775 3.44526C0.478168 3.43313 0.1298 3.76184 0.117675 4.17945L0.000309543 8.22161C-0.00573522 8.42977 0.0743009 8.63122 0.221554 8.77847C0.368806 8.92572 0.57025 9.00576 0.77841 8.99971L4.82058 8.88235C5.23818 8.87022 5.56689 8.52186 5.55477 8.10425C5.54264 7.68664 5.19428 7.35793 4.77667 7.37006L1.64272 7.46105C1.58474 7.46274 1.53729 7.41529 1.53897 7.35731L1.62997 4.22336Z" fill="white"/>
</svg>
