<svg width="15" height="20" viewBox="0 0 15 20" fill="none" xmlns="http://www.w3.org/2000/svg">
<path d="M11.4036 7.24228V0H14.9998V19.5165H11.4036V17.8706C10.3153 19.2344 8.80113 19.8927 6.86109 19.8927C5.01569 19.8927 3.26494 19.1403 1.98735 17.7765C-0.662451 14.7667 -0.662451 10.2991 1.98735 7.33633C3.21762 5.97252 4.96838 5.17305 6.81378 5.17305C8.80113 5.22008 10.3153 5.87847 11.4036 7.24228ZM3.59616 12.6034C3.59616 14.6256 5.25229 16.2716 7.28696 16.2716C9.32163 16.2716 10.9778 14.6256 10.9778 12.6034C10.9778 10.5812 9.32163 8.93528 7.28696 8.93528C5.29961 8.93528 3.64348 10.5342 3.59616 12.6034Z" fill="#2D5FAA"/>
</svg>
